<?xml version="1.0" ?><svg height="60px" version="1.1" viewBox="0 0 60 60" width="60px" xmlns="http://www.w3.org/2000/svg" xmlns:sketch="http://www.bohemiancoding.com/sketch/ns" xmlns:xlink="http://www.w3.org/1999/xlink"><title/><desc/><defs/><g fill="none" fill-rule="evenodd" id="Page-1" stroke="none" stroke-width="1"><g fill="#0A0B09" id="Fill-28" transform="translate(9.000000, 0.000000)"><path d="M37,25 C35.868,25 34.808,25.439 33.948,26.129 C33.664,23.519 32.092,21 29,21 C27.76,21 26.767,21.409 26,22.063 L26,5 C26,2.337 23.664,0 21,0 C18.336,0 16,2.337 16,5 L16,22.063 C15.233,21.409 14.24,21 13,21 C9.564,21 8,24.11 8,27 L8,29 L5,29 C0,29 0,34.084 0,39 C0,41.142 0.186,44.158 1.071,46.371 L1.214,46.729 C3.195,51.692 6.51,60 15,60 L30,60 C35.951,60 42,47.811 42,41 L42,30 C42,27.337 39.663,25 37,25 L37,25 Z M40,41 C40,47.832 34.019,58 30,58 L15,58 C7.866,58 5.095,51.057 3.071,45.986 L2.928,45.629 C2.321,44.11 2,41.818 2,39 C2,33.315 2.272,31 5,31 L8,31 L8,39 C8,39.553 8.448,40 9,40 C9.552,40 10,39.553 10,39 L10,27 C10,26.837 10.034,23 13,23 C15.966,23 16,26.837 16,27 L16,29 C16,29.553 16.448,30 17,30 C17.552,30 18,29.553 18,29 L18,5 C18,3.458 19.458,2 21,2 C22.542,2 24,3.458 24,5 L24,29 C24,29.553 24.448,30 25,30 C25.552,30 26,29.553 26,29 L26,27 C26,26.837 26.034,23 29,23 C31.966,23 32,26.837 32,27 L32,33 C32,33.553 32.447,34 33,34 C33.553,34 34,33.553 34,33 L34,30 C34,28.458 35.458,27 37,27 C38.542,27 40,28.458 40,30 L40,41 L40,41 Z"/></g></g></svg>